<?xml version="1.0" standalone="no"?>
<!DOCTYPE svg PUBLIC "-//W3C//DTD SVG 20010904//EN"
 "http://www.w3.org/TR/2001/REC-SVG-20010904/DTD/svg10.dtd">
<svg version="1.0" xmlns="http://www.w3.org/2000/svg"
 width="1152.000000pt" height="720.000000pt" viewBox="0 0 1152.000000 720.000000"
 preserveAspectRatio="xMidYMid meet">

<g transform="translate(0.000000,720.000000) scale(0.100000,-0.100000)"
fill="#000000" stroke="none">
<path d="M0 3600 l0 -3600 5760 0 5760 0 0 3600 0 3600 -5760 0 -5760 0 0
-3600z m2994 716 c42 -17 113 -80 131 -117 30 -57 36 -115 20 -192 -30 -144
-13 -240 60 -339 74 -100 193 -158 327 -158 55 0 86 7 146 31 121 50 198 42
264 -28 34 -35 48 -73 48 -127 0 -151 -271 -374 -530 -436 -156 -37 -344 -25
-503 33 -222 81 -425 290 -503 519 -34 102 -43 167 -33 264 15 145 77 284 178
396 48 53 148 129 202 153 43 18 150 19 193 1z m2978 -334 c70 -34 114 -74
103 -92 -5 -8 -14 -6 -29 8 -70 64 -150 94 -251 94 -62 -1 -85 -6 -138 -31
-264 -126 -265 -532 -2 -662 42 -20 64 -24 145 -24 106 0 157 17 222 74 34 29
68 41 68 23 0 -15 -79 -73 -138 -100 -49 -23 -70 -27 -152 -27 -88 0 -101 3
-162 33 -77 38 -134 97 -175 181 -26 51 -28 66 -28 171 0 107 2 119 29 170 42
81 68 112 130 155 73 50 132 66 233 62 67 -3 92 -9 145 -35z m-1492 -144 c74
-92 138 -169 141 -172 3 -4 65 67 137 157 136 171 155 191 171 185 5 -1 -56
-84 -135 -183 -79 -99 -144 -183 -144 -188 0 -4 67 -91 150 -194 82 -103 147
-189 145 -191 -12 -13 -46 23 -175 182 -77 97 -144 176 -148 176 -4 -1 -70
-82 -147 -180 -77 -99 -146 -180 -153 -180 -8 0 -12 4 -10 9 2 6 62 83 133
172 72 88 138 171 147 183 16 21 14 25 -100 167 -195 241 -188 232 -166 227
10 -2 80 -78 154 -170z m2182 -50 c59 -123 140 -294 182 -380 55 -115 71 -158
60 -158 -10 0 -36 42 -70 115 l-55 115 -238 0 -238 0 -54 -115 c-29 -63 -59
-115 -66 -115 -7 0 -13 2 -13 5 0 6 267 570 321 678 22 42 45 77 52 77 7 0 61
-100 119 -222z m766 -71 l-3 -293 -30 -59 c-20 -40 -45 -69 -73 -90 -39 -27
-51 -30 -115 -30 -103 1 -169 39 -211 123 -16 31 -16 32 4 32 11 0 20 -5 20
-11 0 -23 54 -79 94 -98 46 -23 118 -27 163 -10 38 14 71 46 96 94 21 38 22
55 25 338 3 255 5 297 18 297 13 0 15 -39 12 -293z m224 41 c6 -269 12 -307
63 -387 33 -53 112 -93 196 -99 87 -6 147 10 199 55 85 73 100 142 100 461 0
141 4 222 10 222 6 0 10 -95 10 -264 0 -216 -3 -273 -16 -314 -83 -258 -478
-255 -563 3 -19 60 -21 87 -21 320 0 140 4 255 9 255 5 0 11 -114 13 -252z
m-2374 -185 c3 -10 -28 -13 -132 -13 -115 0 -136 2 -136 15 0 13 19 15 132 13
94 -2 133 -7 136 -15z"/>
<path d="M2775 4257 c-72 -39 -178 -143 -224 -220 -57 -97 -83 -181 -89 -290
-6 -115 6 -176 53 -289 56 -133 166 -267 283 -347 143 -97 251 -131 437 -138
149 -6 252 13 371 67 118 53 252 164 318 264 49 73 26 169 -50 214 -45 26 -97
24 -167 -7 -83 -37 -118 -43 -206 -39 -120 7 -188 36 -272 115 -45 43 -77 84
-100 130 -37 74 -37 77 -27 345 3 94 2 97 -27 139 -44 63 -95 89 -175 89 -54
-1 -75 -6 -125 -33z m128 -184 c3 -5 -13 -37 -34 -73 -94 -154 -98 -335 -12
-501 109 -211 348 -312 594 -252 71 17 94 13 68 -11 -45 -44 -254 -61 -360
-30 -182 54 -331 204 -384 388 -27 93 -23 214 9 311 41 120 99 201 119 168z"/>
<path d="M6428 3738 c-59 -122 -105 -225 -102 -230 7 -12 434 -10 434 2 0 14
-212 450 -219 450 -4 0 -55 -100 -113 -222z"/>
</g>
</svg>
